<svg xmlns="http://www.w3.org/2000/svg" viewBox="0 0 962.73 843.8"><defs/><path style="block-progression:tb;text-indent:0;text-transform:none" fill="#b52c07" d="M479.361.05a37.504 37.504 0 00-30.469 18.719l-221.94 384.38-221.94 384.41a37.504 37.504 0 0032.469 56.25h887.76a37.504 37.504 0 0032.469-56.25l-221.94-384.41-221.94-384.38A37.504 37.504 0 00479.36.049zm2 112.44l189.47 328.16 189.47 328.16h-757.88l189.48-328.16 189.46-328.16z" color="#000"/><path d="M484.851 268.25c-.27-.006-.52.028-.744.053-8.152.806-7.163 11.468-6.803 17.806.683 17.768 3.667 32.688 3.667 32.688-21.716 5.467-30.668 2.71-30.668 2.71-3.341-7.592-2.605-29.445-2.605-29.445s-.296-4.898-5.155-5.05c-4.86-.151-5.634 4.89-5.634 4.89-.304 13.06 1.541 24.61 1.541 24.61s-8.679-8.072-11.108-10.047c-2.43-1.974-5.907-3.196-8.185-1.222-2.278 1.974.744 7.281.744 7.281 6.834 10.934 20.12 19.913 20.12 19.913l1.184 9.85-7.91-2.124c-20.501-8.2-30.987-25.512-30.987-25.512-8.414-6.576-8.026 3.082-8.026 3.082.152 6.986 10.76 22.453 20.782 28.223 10.023 5.771 16.636 5.634 16.636 5.634l37.152 38.853c18.255 23.41 44.594 26.257 44.594 26.257h20.676c10.238-.303 5.156 8.983 5.156 8.983l-24.396 42.574c-10.31-3.007-15.998-2.658-15.998-2.658-18.527.608-22.176 7.016-35.24 7.016-13.287 0-21.685-4.434-21.685-4.434-48.443-12.453-77.07-12.202-77.07-12.202-69.582 3.007-83.287 38.195-83.287 61.389s17.593 18.922 17.593 18.922c.752 2.782 6.697 13.607 6.697 13.607 8.656 20.197 25.353 32.635 25.353 32.635 6.606 7.061 5.953 15.52 5.953 15.52 0 6.443-4.2 11.481-4.2 11.481-11.133 10.045-10.204 17.912-10.204 17.912 0 10.631 11.959 11.693 11.959 11.693 10.416 0 15.626 10.364 15.626 10.364 5.922 12.301 19.56 26.576 19.56 26.576 7.896 7.897 11.8 18.018 11.8 18.018 4.1 13.819 12.384 14.351 12.384 14.351 1.94 1.64 2.338 4.04 2.338 4.04v11.8c0 2.776 2.18 3.773 2.18 3.773 4.51 1.181 12.118 7.973 12.118 7.973 3.973 4.51 8.61-1.223 8.61-1.223 5.799 2.04 5.262-4.464 5.262-4.464 0-3.651-2.179-6.06-2.179-6.06-2.792-4.08-3.614-7.494-3.614-7.494-8.808-21.109-30.934-41.883-30.934-41.883-13.011-15.935.744-10.205.744-10.205l29.18 18.71c4.402 2.684 3.614 6.43 3.614 6.43 0 4.86 2.764 4.146 2.764 4.146h6.378c3.19 0 5.9 4.89 5.9 4.89 3.189 6.226-.32 9.727-.32 9.727-5.466 6.53-4.57 11.693-4.57 11.693 0 3.796 2.764 4.837 2.764 4.837 6.378 2.885 10.099 10.63 10.099 10.63v8.876c0 8.276 8.717 8.77 8.717 8.77 4.403 0 3.955-3.524 3.955-3.524 3.57 4.025 5.771-.888 5.771-.888.077-4.783-2.126-7.016-2.126-7.016-4.86-8.96-3.773-21.26-3.773-21.26 0-34.32 21.686-76.059 21.686-76.059h18.975c10.179 0 22.642-9.567 22.642-9.567 14.778-13.434 51.61-28.542 51.61-28.542 15.945-6.074 13.075-17.487 13.075-17.487 0-9.87-20.942-16.849-20.942-16.849-27.487-8.2-24.556-10.046-24.556-10.046 6.228-14.926 21.048-17.54 21.048-17.54-.215-2.362 2.145-21.229 16.105-34.973 13.96-13.745 14.829-30.668 14.829-30.668 0-7.365 2.232-6.378 2.232-6.378h8.823c6.013 0 9.886-6.963 9.886-6.963h11.268c5.154 1.933 8.504 1.488 8.504 1.488 14.067 0 18.762-22.536 18.762-22.536 1.068-5.902-3.082-5.846-3.082-5.846-11.49-.967-12.916-5.687-12.916-5.687-12.78-12.886-46.667-26.735-46.667-26.735-9.88-4.94.744-8.877.744-8.877 24.59-9.127 25.672-22.27 25.672-22.27s1.352-4.501-1.01-6.112c-2.856-2.294-5.262.744-5.262.744-7.517 12.778-8.344 7.973-8.344 7.973 3.114-5.047 2.55-10.95 2.55-10.95.076-5.676-3.72-5.049-3.72-5.049-3.007 0-3.136 6.538-3.136 6.538-.322 8.268-2.02 10.31-2.02 10.31-2.416 3.867-3.773-.318-3.773-.318 2.126-14.123-1.648-19.932-1.648-19.932s-3.045-6.538-6.537-4.411c-3.493 2.126-1.648 7.44-1.648 7.44 3.492 10.327.265 16.106.265 16.106-4.395 11.066-16.689 10.046-16.689 10.046-12.908 0-13.66-8.08-13.66-8.08 14.427-12.603 12.597-28.382 12.597-28.382 0-15.793-15.042-30.987-15.042-30.987s-4.548-3.759-7.281-1.33c-2.734 2.43.265 7.23.265 7.23 12.456 12.67 10.736 22.748 10.736 22.748 2.287 21.437-12.916 18.71-12.916 18.71-23.624 0-42.52-47.465-42.52-47.465-7.732-21.69-6.432-44.38-6.432-44.38 0-6.18-2.738-7.335-4.624-7.389zm-1.913 64.366s15.342 29.324 38.322 46.72c0 0 18.489 11.731 18.337 16.743 0 0-.33 1.754-6.538 1.754h-14.723s-13.348-.19-16.69-11.427c0 0-.796-13.561-8.238-27.532 0 0-8.314-14.579-11.959-17.008 0 0-6.408-4.533-5.952 3.667 0 0-.608 7.123 8.504 18.815 0 0 2.445 2.878 2.445 10.471 0 0-.085 3.124-4.359 4.359 0 0-4.024 1.746-10.099-4.784 0 0-17.578-22.012-17.274-39.172 0 0 16.378.737 28.223-2.604zm-85.201 240.19s30.562 12.369 44.38 12.065l23.387.319s1.017 14.86-.957 28.223c0 0-1.868 8.208-4.146 10.79 0 0-13.762-.362-14.19 9.195 0 0-.626 4.898 3.188 5.793 0 0-4.73 2.26-4.73 4.837s1.52 3.667 8.823 3.774c0 0-2.69 5.653-4.73 24.875 0 0-1.271 12.889-9.568 5.687 0 0-24.449-19.218-47.836-30.456-23.386-11.238-25.2-16.598-27.479-20.09 0 0-5.44-5.286 1.648-8.292 0 0 18.173-8.254 23.865-22.642 0 0 3.242-4.297 3.242-10.418 0 0-.12-4.149-1.7-5.847 0 0-2.533-7.813 6.803-7.813zm117.62 11.481c2.328-.009 4.328.393 5.846 1.01 0 0 11.868 6.378 16.424 6.378h13.98s6.354.478 1.647 4.73c0 0-20.79 8.505-39.013 19.134 0 0-2.438 1.648-7.6 3.774h-12.173s-3.918 4.754-5.74 4.754-6.112-.023-6.112-.023 3.956-20.957 13.979-30.828c6.89-6.787 13.639-8.909 18.762-8.93z"/></svg>